<?xml version="1.0" standalone="no"?>
<!DOCTYPE svg PUBLIC "-//W3C//DTD SVG 20010904//EN"
 "http://www.w3.org/TR/2001/REC-SVG-20010904/DTD/svg10.dtd">
<svg version="1.0" xmlns="http://www.w3.org/2000/svg"
 width="700.000000pt" height="700.000000pt" viewBox="0 0 700.000000 700.000000"
 preserveAspectRatio="xMidYMid meet">
<metadata>
Created by potrace 1.11, written by Peter Selinger 2001-2013
</metadata>
<g transform="translate(0.000000,700.000000) scale(0.100000,-0.100000)"
fill="#000000" stroke="none">
<path d="M3399 6867 c-74 -73 -224 -217 -333 -322 -109 -104 -235 -226 -280
-270 -46 -44 -199 -192 -342 -330 -142 -137 -312 -301 -376 -364 -65 -63 -148
-143 -184 -178 -37 -35 -168 -161 -292 -281 -124 -119 -248 -239 -277 -267
-28 -27 -163 -158 -300 -290 -136 -132 -264 -255 -284 -274 -20 -19 -146 -141
-281 -271 -135 -130 -291 -282 -348 -336 l-103 -99 62 -65 c34 -36 170 -177
303 -314 132 -136 261 -269 285 -295 24 -25 147 -153 275 -285 127 -131 255
-264 285 -295 30 -31 124 -128 210 -217 150 -155 510 -527 681 -704 72 -75
208 -216 570 -590 58 -60 177 -183 264 -274 88 -91 164 -162 169 -159 6 3 7 2
4 -3 -3 -6 66 -84 153 -174 l158 -164 65 64 c35 36 144 142 242 235 97 94 211
203 253 244 42 40 76 77 75 82 -2 5 3 8 10 6 6 -1 11 4 10 10 -2 7 1 12 5 10
12 -3 102 85 96 95 -3 5 -2 8 3 7 26 -4 35 1 24 15 -10 12 -9 14 7 9 21 -5 37
20 26 40 -5 8 -3 8 6 0 11 -10 19 -7 39 15 14 15 24 30 23 34 -1 5 1 7 6 6 10
-3 68 53 65 63 -2 5 1 8 5 6 13 -3 102 81 99 94 -1 6 5 13 14 14 24 4 212 192
204 204 -3 6 0 9 7 6 8 -3 81 60 173 150 88 85 164 155 168 155 5 0 6 4 3 8
-2 4 9 17 25 27 16 11 29 25 29 32 0 6 9 15 20 18 11 4 18 11 15 16 -4 5 -1 9
4 9 6 0 39 27 74 61 34 34 77 74 95 91 20 16 31 35 28 43 -3 8 0 12 7 9 14 -5
243 212 239 227 -1 6 1 8 6 5 11 -6 248 224 244 238 -2 6 0 7 4 3 5 -4 31 15
59 43 27 27 93 92 146 143 53 50 184 176 290 279 107 102 207 198 222 212 16
15 25 31 21 38 -4 7 -3 8 5 4 7 -5 53 33 124 102 62 61 143 140 181 177 l68
67 -25 26 c-13 15 -36 40 -50 55 -16 17 -31 26 -38 21 -7 -4 -9 -3 -6 3 10 16
-33 65 -50 59 -8 -4 -11 -1 -8 5 8 13 -24 51 -37 43 -4 -3 -7 0 -6 8 2 7 -3
12 -9 11 -7 -2 -12 1 -10 6 3 12 -234 257 -245 253 -5 -1 -7 1 -4 6 7 12 -58
74 -69 65 -4 -5 -6 -3 -2 3 7 12 -180 210 -195 206 -5 -1 -7 2 -4 6 3 5 -21
35 -53 66 -33 31 -58 56 -56 56 1 0 -29 33 -69 73 -39 41 -134 139 -211 219
-77 80 -234 243 -350 363 -115 120 -237 246 -270 280 -65 68 -462 480 -535
555 -25 26 -142 147 -260 270 -118 122 -244 253 -280 290 -205 211 -526 543
-530 549 -3 3 -14 14 -25 23 -19 16 -25 12 -156 -115z m216 -2289 c209 -218
591 -612 699 -722 59 -61 121 -126 137 -144 17 -19 34 -30 41 -26 6 4 8 3 5
-4 -4 -5 29 -47 73 -93 44 -45 80 -85 80 -89 0 -6 -144 -146 -500 -490 -37
-36 -168 -162 -291 -281 -123 -119 -264 -255 -312 -302 l-89 -84 -61 64 c-34
35 -87 90 -117 122 -30 31 -155 161 -276 287 -122 126 -241 250 -265 275 -24
26 -129 135 -234 243 -104 108 -191 200 -193 205 -1 4 46 54 105 111 60 56
169 162 243 234 174 169 568 549 718 693 64 62 120 113 123 113 3 0 54 -51
114 -112z m1426 -385 c13 -16 12 -17 -3 -4 -17 13 -22 21 -14 21 2 0 10 -8 17
-17z m247 -118 c-3 -3 -9 2 -12 12 -6 14 -5 15 5 6 7 -7 10 -15 7 -18z m637
-155 c3 -5 1 -10 -4 -10 -6 0 -11 5 -11 10 0 6 2 10 4 10 3 0 8 -4 11 -10z
m-485 -114 c0 -2 -8 -10 -17 -17 -16 -13 -17 -12 -4 4 13 16 21 21 21 13z
m850 -46 c0 -5 -5 -10 -11 -10 -5 0 -7 5 -4 10 3 6 8 10 11 10 2 0 4 -4 4 -10z
m-1363 -125 c0 -8 -4 -12 -9 -9 -4 3 -8 9 -8 15 0 5 4 9 8 9 5 0 9 -7 9 -15z
m1123 -35 c0 -5 -2 -10 -4 -10 -3 0 -8 5 -11 10 -3 6 -1 10 4 10 6 0 11 -4 11
-10z m-676 -158 c3 -5 -1 -9 -9 -9 -8 0 -15 4 -15 9 0 4 4 8 9 8 6 0 12 -4 15
-8z m-729 -30 c-3 -3 -11 0 -18 7 -9 10 -8 11 6 5 10 -3 15 -9 12 -12z m125
-12 c0 -5 -2 -10 -4 -10 -3 0 -8 5 -11 10 -3 6 -1 10 4 10 6 0 11 -4 11 -10z
m1001 -17 c13 -16 12 -17 -3 -4 -10 7 -18 15 -18 17 0 8 8 3 21 -13z m-1407
-261 c3 -5 -1 -9 -9 -9 -8 0 -12 4 -9 9 3 4 7 8 9 8 2 0 6 -4 9 -8z m607 -39
c13 -16 12 -17 -3 -4 -17 13 -22 21 -14 21 2 0 10 -8 17 -17z m72 2 c-3 -9 -8
-14 -10 -11 -3 3 -2 9 2 15 9 16 15 13 8 -4z m-263 -201 c0 -8 -19 -13 -24 -6
-3 5 1 9 9 9 8 0 15 -2 15 -3z m665 -83 c3 -5 2 -12 -3 -15 -5 -3 -9 1 -9 9 0
17 3 19 12 6z m655 -35 c0 -2 -8 -10 -17 -17 -16 -13 -17 -12 -4 4 13 16 21
21 21 13z m-1376 -52 c3 -8 2 -12 -4 -9 -6 3 -10 10 -10 16 0 14 7 11 14 -7z
m121 -23 c3 -5 2 -12 -3 -15 -5 -3 -9 1 -9 9 0 17 3 19 12 6z m-842 -46 c-3
-9 -8 -14 -10 -11 -3 3 -2 9 2 15 9 16 15 13 8 -4z m647 11 c0 -2 -8 -10 -17
-17 -16 -13 -17 -12 -4 4 13 16 21 21 21 13z m551 -69 c-10 -9 -11 -8 -5 6 3
10 9 15 12 12 3 -3 0 -11 -7 -18z m-1507 -145 c3 -5 -1 -9 -9 -9 -8 0 -12 4
-9 9 3 4 7 8 9 8 2 0 6 -4 9 -8z m-49 -42 c3 -5 1 -10 -4 -10 -6 0 -11 5 -11
10 0 6 2 10 4 10 3 0 8 -4 11 -10z m676 -7 c13 -16 12 -17 -3 -4 -17 13 -22
21 -14 21 2 0 10 -8 17 -17z m1089 -97 c0 -2 -8 -10 -17 -17 -16 -13 -17 -12
-4 4 13 16 21 21 21 13z m-2006 -182 c3 -8 2 -12 -4 -9 -6 3 -10 10 -10 16 0
14 7 11 14 -7z m11 -74 c3 -6 -1 -7 -9 -4 -18 7 -21 14 -7 14 6 0 13 -4 16
-10z m560 0 c3 -6 -1 -7 -9 -4 -18 7 -21 14 -7 14 6 0 13 -4 16 -10z m-635
-74 c0 -2 -8 -10 -17 -17 -16 -13 -17 -12 -4 4 13 16 21 21 21 13z m470 -5 c0
-6 -4 -12 -8 -15 -5 -3 -9 1 -9 9 0 8 4 15 9 15 4 0 8 -4 8 -9z m653 -76 c-3
-9 -8 -14 -10 -11 -3 3 -2 9 2 15 9 16 15 13 8 -4z m143 -91 c1 -9 0 -13 -4
-10 -3 4 -7 14 -8 22 -1 9 0 13 4 10 3 -4 7 -14 8 -22z m-796 -58 c0 -2 -8
-10 -17 -17 -16 -13 -17 -12 -4 4 13 16 21 21 21 13z m1045 -16 c3 -6 -1 -7
-9 -4 -18 7 -21 14 -7 14 6 0 13 -4 16 -10z m-1334 -47 c13 -16 12 -17 -3 -4
-17 13 -22 21 -14 21 2 0 10 -8 17 -17z m1084 -22 c3 -5 2 -12 -3 -15 -5 -3
-9 1 -9 9 0 17 3 19 12 6z m-804 -98 c13 -16 12 -17 -3 -4 -17 13 -22 21 -14
21 2 0 10 -8 17 -17z m-546 -73 c3 -6 -1 -7 -9 -4 -18 7 -21 14 -7 14 6 0 13
-4 16 -10z m226 -7 c13 -16 12 -17 -3 -4 -10 7 -18 15 -18 17 0 8 8 3 21 -13z
m779 11 c0 -8 -19 -13 -24 -6 -3 5 1 9 9 9 8 0 15 -2 15 -3z m-54 -79 c-1 -8
-5 -17 -8 -21 -5 -4 -4 16 1 34 3 9 9 -1 7 -13z m214 -39 c0 -2 -8 -10 -17
-17 -16 -13 -17 -12 -4 4 13 16 21 21 21 13z m-50 -110 c0 -2 -8 -10 -17 -17
-16 -13 -17 -12 -4 4 13 16 21 21 21 13z m-200 -96 c0 -5 -2 -10 -4 -10 -3 0
-8 5 -11 10 -3 6 -1 10 4 10 6 0 11 -4 11 -10z m-245 -319 c3 -5 2 -12 -3 -15
-5 -3 -9 1 -9 9 0 17 3 19 12 6z m-915 -117 c0 -8 -19 -13 -24 -6 -3 5 1 9 9
9 8 0 15 -2 15 -3z m117 -49 c0 -8 -4 -12 -9 -9 -5 3 -6 10 -3 15 9 13 12 11
12 -6z m474 -122 c13 -16 12 -17 -3 -4 -17 13 -22 21 -14 21 2 0 10 -8 17 -17z"/>
</g>
</svg>
